<?xml version="1.0" standalone="no"?>
<!DOCTYPE svg PUBLIC "-//W3C//DTD SVG 20010904//EN"
 "http://www.w3.org/TR/2001/REC-SVG-20010904/DTD/svg10.dtd">
<svg version="1.0" xmlns="http://www.w3.org/2000/svg"
 width="1080.000000pt" height="1080.000000pt" viewBox="0 0 1080.000000 1080.000000"
 preserveAspectRatio="xMidYMid meet">
<metadata>
Created by potrace 1.11, written by Peter Selinger 2001-2013
</metadata>
<g transform="translate(0.000000,1080.000000) scale(0.100000,-0.100000)"
fill="#000000" stroke="none">
<path d="M3220 9509 c-552 -68 -1054 -352 -1405 -794 -288 -362 -460 -770
-536 -1275 -19 -120 -22 -190 -23 -405 0 -262 6 -344 45 -580 60 -363 204
-795 385 -1158 193 -385 456 -755 828 -1166 182 -202 605 -614 951 -926 544
-494 703 -641 925 -864 450 -452 780 -872 999 -1273 24 -43 46 -78 49 -78 4 0
43 64 87 141 250 441 560 828 1041 1299 171 167 281 269 884 815 453 409 967
934 1206 1230 610 756 902 1471 954 2335 33 547 -52 1005 -265 1430 -187 372
-490 719 -823 943 -484 325 -1171 417 -1730 232 -532 -176 -986 -612 -1299
-1244 l-67 -134 -15 34 c-59 137 -178 370 -229 452 -223 353 -502 606 -872
791 -168 83 -313 134 -490 171 -104 22 -158 27 -325 30 -110 2 -234 0 -275 -6z
m527 -468 c187 -36 392 -117 550 -218 222 -140 454 -382 602 -628 108 -179
177 -346 331 -800 106 -313 157 -451 185 -504 13 -26 14 -25 53 59 58 124 118
282 222 580 165 473 262 668 440 885 62 75 207 219 280 277 195 155 451 275
704 330 136 30 453 32 591 5 198 -39 415 -120 576 -215 507 -300 826 -804 911
-1442 19 -144 16 -564 -6 -725 -85 -626 -315 -1160 -756 -1750 -288 -386 -674
-789 -1275 -1330 -719 -649 -933 -851 -1156 -1091 -233 -251 -372 -418 -499
-596 -30 -42 -57 -77 -60 -77 -3 0 -39 45 -80 100 -270 363 -662 769 -1275
1324 -584 530 -678 618 -935 875 -390 389 -638 683 -869 1028 -577 863 -759
1788 -510 2597 231 749 782 1239 1498 1331 136 17 346 11 478 -15z"/>
</g>
</svg>
